<svg width="22" height="23" viewBox="0 0 22 23" fill="none" xmlns="http://www.w3.org/2000/svg">
<path d="M11.9167 3.26404C7.36085 3.26404 3.66669 6.96721 3.66669 11.5342H0.916687L4.48252 15.1087L4.54669 15.2373L8.25002 11.5342H5.50002C5.50002 7.97801 8.36919 5.10184 11.9167 5.10184C15.4642 5.10184 18.3334 7.97801 18.3334 11.5342C18.3334 15.0903 15.4642 17.9665 11.9167 17.9665C10.1475 17.9665 8.54335 17.2405 7.38835 16.0735L6.08669 17.3784C7.58085 18.8762 9.63419 19.8043 11.9167 19.8043C16.4725 19.8043 20.1667 16.1011 20.1667 11.5342C20.1667 6.96721 16.4725 3.26404 11.9167 3.26404ZM11 7.85855V12.4531L14.9234 14.7871L15.5834 13.6752L12.375 11.7639V7.85855H11Z" fill="#909090"/>
</svg>
