<svg width="18" height="19" viewBox="0 0 18 19" fill="none" xmlns="http://www.w3.org/2000/svg">
<path d="M0.75 16.5933H3.75V7.57134H0.75V16.5933ZM17.25 8.32317C17.25 7.49615 16.575 6.81951 15.75 6.81951H11.0175L11.73 3.38365L11.7525 3.14306C11.7525 2.83481 11.625 2.54912 11.4225 2.34612L10.6275 1.5567L5.6925 6.51126C5.415 6.78192 5.25 7.15783 5.25 7.57134V15.0896C5.25 15.9166 5.925 16.5933 6.75 16.5933H13.5C14.1225 16.5933 14.655 16.2174 14.88 15.6761L17.145 10.3757C17.2125 10.2027 17.25 10.0223 17.25 9.82682V8.32317Z" fill="#909090"/>
</svg>
