<svg width="22" height="23" viewBox="0 0 22 23" fill="none" xmlns="http://www.w3.org/2000/svg">
<path d="M17.8567 11.5021C16.4175 7.75298 11.2934 7.55082 12.5309 2.10173C12.6225 1.69741 12.1917 1.38498 11.8434 1.59633C8.51585 3.56278 6.12335 7.50487 8.13085 12.6691C8.29585 13.0918 7.80085 13.4869 7.44335 13.2113C5.78419 11.9524 5.61002 10.1421 5.75669 8.84647C5.81169 8.36864 5.18835 8.13892 4.92252 8.53404C4.29919 9.4897 3.66669 11.0335 3.66669 13.3583C4.01502 18.5041 8.35085 20.0846 9.90919 20.2868C12.1367 20.5717 14.5475 20.1582 16.28 18.5685C18.1867 16.795 18.8834 13.9648 17.8567 11.5021ZM9.35002 16.1242C10.67 15.8026 11.3484 14.8469 11.5317 14.0015C11.8342 12.6875 10.6517 11.401 11.4492 9.3243C11.7517 11.0426 14.4467 12.1178 14.4467 13.9923C14.52 16.3171 12.0084 18.3112 9.35002 16.1242Z" fill="#909090"/>
</svg>
